



The brothers Chow Nunn and Chow Lui's giant computer company is facing a tense crisis - a powerful computer virus is rapidly wiping out their computer network. At the last minute a cyber-friend arrives to join the battle. The mysterious 'Angel.com' battles the virus and saves the company. Invited by Chow Lui for a visit in person, Angel.com arrives in the form of the beautiful Lynn. But it turns out Lynn is a professional assassin with amazing high-tech and kung fu skills. She kills Chow Lui with cyanide hidden in a pair of sunglasses. She's aided by her sister Sue, who operates the pair's World Panorama surveillance system, which allows them to tap into any video security system in the world. Young cop Kong Yat Hong and her partner Mark are put on the case. Hong has a brilliant mind and immediately senses she's dealing with a killer with very special skills. Realizing they are facing a tough adversary, Lynn and Sue become fascinated with Hong as well. Lynn runs into Yan, the cousin of an old friend who died. Lynn and Yan shared an unspoken love in the past which is now rekindled in the open, and Lynn begins to question whether she wants to continue to be an assassin. Chow Nunn was behind his older brother's death. He hired Angel.com to kill Lui because Lui opposed Nunn's business plans, and also because Nunn is carrying on a secret affair with Lui's wife. But when Hong's investigation starts to point to Nunn, Nunn becomes worried and decides to hire Angel.com for another hit ^Ö only so he can double-cross them, wipe them out and prevent them from leading the police back to him. Yan tells Lynn he loves her and wants to marry her. After battling an attack by robbers with her amazing martial arts skills, she tells Yan her family's history. Her father invented the World Panorama for use by the authorities, but was turned down. Suspiciously, word of the device got out to the underworld and both parents were brutally killed in front of the girls' eyes by criminals eager to get their hands on the invention. Bereft at the loss of their parents and disillusioned with the law, the sisters turned professional assassins, killing criminals for other criminals. Lynn tells Sue she wants to stop their criminal life and get married ^Ö she won't accept Chow Nunn's order for the second killing. But Sue, angry and feeling abandoned by Lynn, decides to carry out the killing herself. Lynn realizes what's happening and rushes to save Sue, who doesn't have the skills to carry out the hit. They are attacked by Chow's men but escape. Now the assassin and the cop must join forces - so Sue can avenge her sister's death and Hong can prove her innocence in a spectacular confrontation at Chow Nunn's headquarters...







General
Complete name                    : So Close 2002 DVDRip(Multisub) GoGoSo Close 2002 DVDRip(Multisub) GoGo.avi
IMDB Link                        : [url]http://www.imdb.com/title/tt0300620/[/url]
Format                           : AVI
Format/Info                      : Audio Video Interleave
File size                        : 800 MiB
Duration                         : 1h 50mn
Overall bit rate                 : 1 010 Kbps
Writing application              : VirtualDubMod 1.5.4.1 (build 2178/release)
Writing library                  : VirtualDubMod build 2178/release

Video
ID                               : 0
Format                           : MPEG-4 Visual
Format profile                   : Advanced Simple@L5
Format settings, BVOP            : Yes
Format settings, QPel            : No
Format settings, GMC             : No warppoints
Format settings, Matrix          : Custom
Codec ID                         : XVID
Codec ID/Hint                    : XviD
Duration                         : 1h 50mn
Bit rate                         : 880 Kbps
Width                            : 560 pixels
Height                           : 288 pixels
Display aspect ratio             : 1.944
Frame rate                       : 23.976 fps
Color space                      : YUV
Chroma subsampling               : 4:2:0
Bit depth                        : 8 bits
Scan type                        : Progressive
Bits/(Pixel*Frame)               : 0.228
Stream size                      : 698 MiB (87%)
Writing library                  : XviD 1.2.1 (UTC 2008-12-04)

Audio
ID                               : 1
Format                           : MPEG Audio
Format version                   : Version 1
Format profile                   : Layer 3
Mode                             : Joint stereo
Mode extension                   : MS Stereo
Codec ID                         : 55
Codec ID/Hint                    : MP3
Duration                         : 1h 50mn
Bit rate mode                    : Variable
Bit rate                         : 117 Kbps
Nominal bit rate                 : 128 Kbps
Channel(s)                       : 2 channels
Sampling rate                    : 48.0 KHz
Stream size                      : 92.4 MiB (12%)
Alignment                        : Aligned on interleaves
Interleave, duration             : 24 ms (0.58 video frame)
Interleave, preload duration     : 158 ms
Writing library                  : LAME3.98r
Encoding settings                : -m j -V 4 -q 2 -lowpass 17 --abr 128
Language                         : English
Subtitles                        : English,Francais,Espanol,Portugues,Chinese,Korean,Thai.(.IDX+*.SUB)
Genre                            : Action | Adventure | Comedy | Crime | Drama | Romance | Thriller
 
[img]http://images.allmoviephoto.com/2003_So_Close/2003_so_close_wallpaper_002.jpg[/img]

[img]http://imgboot.com/images/fasamoo/pleaseseed.gif[/img] 
